<?xml version="1.0" encoding="utf-8"?>
<!-- Generator: Adobe Illustrator 22.0.1, SVG Export Plug-In . SVG Version: 6.00 Build 0)  -->
<svg version="1.1" id="Capa_1" xmlns="http://www.w3.org/2000/svg" xmlns:xlink="http://www.w3.org/1999/xlink" x="0px" y="0px"
	 viewBox="0 0 1234 245" style="enable-background:new 0 0 1234 245;" xml:space="preserve">
<style type="text/css">
	.st0{fill:#FFFFFF;}
	.st1{font-family:'BatmanForeverAlternate';}
	.st2{font-size:97.4096px;}
</style>
<g>
	<path class="st0" d="M196.6,182.9c-1,0.6-1.6,0.9-2.2,1.3c-3,2.2-5.8,2-9,0.1c-15.3-9.5-30.7-18.8-46.1-28.2
		c-5.8-3.5-11.6-7-17.3-10.6c-1.1-0.7-1.8-0.6-2.8,0.1c-20.8,12.8-41.7,25.5-62.5,38.3c-3.6,2.3-6.9,2.6-10.3,0
		c-0.7-0.5-1.5-0.9-2.7-1.6c0,1.1,0,1.8,0,2.6c0,17.4,0,34.8,0,52.1c0,4.5-2.8,7.4-6.8,7.1c-3.4-0.2-5.8-2.8-6-6.6
		c-0.1-2.6,0-5.3,0-7.9c0-17.3,0-34.6,0-51.9c0-1,0-2,0-3.2c-2.2-1.3-4.6-2.8-7.2-4.4c0,0.9-0.1,1.6-0.1,2.3c0,10.9,0,21.7,0,32.6
		c0,4.7-3.8,7.7-8.1,6.6c-3-0.8-4.7-3.4-4.7-7.1c0-11.8,0-23.6,0-35.3c0-2.2,0.7-4.9-0.3-6.6c-0.9-1.7-3.5-2.6-5.4-3.7
		c-2.4-1.4-3.4-3.5-3.4-6.2c0-11.5,0-23,0-34.6c0-2.8,1.2-4.9,3.6-6.4c1.9-1.1,4.4-1.9,5.2-3.6c0.9-1.8,0.3-4.4,0.3-6.6
		c0-7.2-0.1-14.5,0.1-21.7c0-1.7-0.5-2.7-2-3.4c-1.4-0.7-2.6-1.5-3.9-2.3c-2.2-1.4-3.3-3.3-3.3-5.9c0-11.7,0-23.4,0-35.1
		c0-2.5,1.1-4.5,3.3-5.9c14.3-8.7,28.7-17.4,43-26.1c2.7-1.6,5.2-1.2,7.7,0.4c18.3,11.2,36.7,22.4,55,33.6c2.8,1.7,5.6,3.4,8.4,5.2
		c1.1,0.7,2,0.7,3.2,0c18.4-11.3,36.9-22.6,55.3-33.8c2.9-1.7,5.7-3.5,8.6-5.2c2.5-1.6,4.9-1.5,7.4,0c14.2,8.6,28.3,17.2,42.5,25.8
		c2.5,1.5,3.7,3.6,3.7,6.5c0,11.5,0,22.9,0,34.4c0,2.9-1.2,5-3.7,6.5c-2.2,1.3-5.2,2.2-6.3,4.2c-1.1,2-0.4,5.1-0.4,7.8
		c0,6.6,0,13.2,0,19.7c0,1.2,0.4,1.9,1.4,2.5c1.9,1.1,3.7,2.2,5.6,3.4c2.2,1.3,3.3,3.3,3.3,5.9c0,11.8,0,23.6,0,35.3
		c0,2.5-1.1,4.4-3.3,5.7c-1.8,1.1-3.7,2.3-5.6,3.3c-1.1,0.6-1.5,1.4-1.5,2.7c0,13.6,0,27.1,0,40.7c0,3.4-2.2,5.8-5.6,6.4
		c-2.9,0.5-5.9-1.3-6.8-4.2c-0.3-1.1-0.4-2.3-0.4-3.5c0-10.5,0-20.9,0-31.4c0-0.5,0-1-0.1-1.9c-2.5,1.5-4.7,2.7-6.8,4.2
		c-0.4,0.3-0.5,1.4-0.5,2.1c0,20.1,0,40.1,0,60.2c0,2.7-1,4.8-3.4,6c-2.2,1.2-4.6,1.2-6.5-0.4c-1.2-1.1-2-2.8-2.7-4.3
		c-0.4-0.8-0.2-1.8-0.2-2.7c0-16.7,0-33.4,0-50.2C196.6,185,196.6,184.2,196.6,182.9z M221,32.8c-0.8-0.5-1.3-0.8-1.8-1.1
		c-9-5.4-18-10.8-26.9-16.4c-1.8-1.1-3-1.1-4.9,0C132.3,49,77.2,82.6,22.1,116.3c-0.5,0.3-1.1,0.7-1.7,1.1c10,6.1,19.8,12,29.5,18
		c1.2,0.8,2.1,0.7,3.3-0.1c47.7-29.2,95.4-58.3,143.2-87.5C204.5,42.9,212.6,37.9,221,32.8z M133,101.5c0.4,0.3,0.6,0.4,0.8,0.5
		c18.3,11.2,36.7,22.4,55,33.6c1,0.6,1.6,0.4,2.5-0.1c4.4-2.7,8.9-5.4,13.3-8.1c5.4-3.3,10.9-6.6,16.5-10c-0.6-0.4-1-0.7-1.4-1
		c-18.1-11-36.1-22-54.1-33.1c-1-0.6-1.8-0.6-2.8,0c-6.9,4.3-13.8,8.4-20.7,12.7C139,97.8,136.1,99.6,133,101.5z M108.3,48.7
		c-0.7-0.4-1.1-0.7-1.5-1c-18-11-36.1-22.1-54.1-33.1c-1-0.6-1.7-0.5-2.6,0.1c-7.7,4.7-15.4,9.4-23.1,14c-2.2,1.3-4.3,2.6-6.7,4.1
		c4.9,3,9.5,5.8,14,8.6C48.2,49.8,62,58.3,75.9,66.7c0.6,0.4,1.8,0.6,2.4,0.3C88.3,61,98.2,54.9,108.3,48.7z M183.3,168.1
		c0.1-0.6,0.2-0.9,0.2-1.1c0-6.1,0.1-12.2-0.1-18.3c0-0.7-0.7-1.7-1.4-2.1c-18-11-36-22-54-33c-0.5-0.3-1-0.5-1.7-0.9
		c0,6.5,0,12.6,0,18.7c0,1.4,0.5,2.2,1.7,3c12.7,7.7,25.5,15.5,38.2,23.3C171.9,161,177.5,164.5,183.3,168.1z M57.9,168.1
		c1.2-0.7,2-1.2,2.7-1.6c5.3-3.2,10.5-6.4,15.8-9.7c11.9-7.3,23.9-14.6,35.8-21.9c0.6-0.4,1.4-1.1,1.4-1.6c0.1-6.6,0.1-13.1,0.1-20
		c-2,1.2-3.7,2.2-5.4,3.3c-16.3,9.9-32.5,19.9-48.8,29.8c-0.6,0.4-1.5,1.2-1.5,1.8C57.9,154.6,57.9,161.1,57.9,168.1z M176.2,75.1
		c5.4,3.3,10.5,6.3,15.5,9.5c1.2,0.8,2,0.7,3.2,0c9.2-5.6,18.2-11.4,27.6-16.8c3.6-2,4.9-4.3,4.6-8.3c-0.4-4.9-0.1-9.9-0.1-15.4
		C209.9,54.5,193.2,64.7,176.2,75.1z M14.7,44.3c-0.1,0.4-0.2,0.6-0.2,0.8c0,6.2-0.1,12.5,0,18.7c0,0.6,0.7,1.5,1.3,1.9
		C26.1,72,36.4,78.3,46.7,84.6c1.1,0.7,1.8,0.6,2.8,0c4-2.5,8.1-4.9,12.1-7.4c1.1-0.7,2.2-1.3,3.5-2.2
		C48.1,64.7,31.5,54.5,14.7,44.3z M196.2,168c0.5-0.2,0.7-0.2,0.9-0.4c9.6-5.8,19.2-11.6,28.8-17.5c0.6-0.3,1-1.3,1-2.1
		c0.1-4.1,0-8.2,0-12.2c0-2.2,0-4.4,0-7c-1,0.5-1.6,0.9-2.2,1.2c-7.6,4.6-15.3,9.3-22.9,13.9c-1.9,1.1-4.4,1.9-5.3,3.5
		c-0.9,1.6-0.3,4.2-0.3,6.4C196.2,158.5,196.2,163.2,196.2,168z M45,168.1c0-6.7,0-13,0-19.2c0-1.2-0.4-1.9-1.4-2.5
		c-9.1-5.5-18.2-11-27.3-16.5c-0.5-0.3-1.1-0.6-1.9-1c0,6.5,0,12.7,0,18.9c0,1.4,0.4,2.1,1.6,2.8c6.7,4,13.3,8,19.9,12
		C38.8,164.4,41.7,166.1,45,168.1z M35.9,92.9c-4.2-2.5-8.1-4.9-12.2-7.4c0,5.1,0,9.8,0,14.8C27.8,97.8,31.7,95.5,35.9,92.9z
		 M216.6,86.2c-3.8,2.3-7.3,4.5-11.1,6.8c3.8,2.3,7.4,4.5,11.1,6.7C216.6,95,216.6,90.8,216.6,86.2z"/>
	<path class="st0" d="M121.5,84.9c-5.3,0-8.5-0.9-11.1-3.5c-3.4-3.4-3.5-8.4-0.3-12.1c4.6-5.2,14.5-5.6,19.5-0.8
		c3.9,3.8,3.6,9.7-0.5,13.2C126.6,83.8,123.4,84.9,121.5,84.9z"/>
</g>
<text transform="matrix(1 0 0 1 283.1074 145.043)" class="st0 st1 st2">Marioneta JM</text>
</svg>
