<?xml version="1.0" standalone="no"?>
<!DOCTYPE svg PUBLIC "-//W3C//DTD SVG 20010904//EN"
 "http://www.w3.org/TR/2001/REC-SVG-20010904/DTD/svg10.dtd">
<svg version="1.0" xmlns="http://www.w3.org/2000/svg"
 width="1800.000000pt" height="1350.000000pt" viewBox="0 0 1800.000000 1350.000000"
 preserveAspectRatio="xMidYMid meet">

<g transform="translate(0.000000,1350.000000) scale(0.100000,-0.100000)"
fill="#000000" stroke="none">
<path d="M6890 11243 c-31 -11 -266 -147 -288 -167 -26 -23 -50 -64 -64 -110
-5 -19 -9 -844 -8 -2065 l1 -2034 50 -55 c28 -31 57 -65 64 -76 19 -29 136
-348 130 -354 -7 -8 40 -38 245 -156 102 -59 214 -125 250 -147 36 -23 88 -52
115 -66 96 -49 1020 -586 1048 -609 33 -27 28 -32 -8 -8 -14 9 -25 12 -25 6 0
-6 8 -15 18 -21 15 -9 15 -10 -5 -8 -12 0 -19 5 -17 9 3 4 1 8 -4 8 -11 0 -90
-36 -132 -60 -14 -8 -29 -15 -35 -16 -25 -6 -84 -42 -77 -48 3 -4 -1 -4 -9 -1
-10 4 -30 -5 -50 -22 -18 -15 -30 -22 -25 -15 4 7 -12 3 -38 -10 -25 -12 -42
-26 -39 -31 4 -6 0 -8 -10 -4 -9 3 -27 -3 -41 -14 -14 -11 -29 -20 -33 -20 -4
1 -17 -2 -27 -5 -18 -6 -19 -7 -3 -19 16 -11 16 -13 2 -19 -9 -3 -14 -2 -11 3
3 5 0 11 -7 13 -16 7 -38 -2 -32 -12 3 -4 -2 -11 -11 -14 -9 -4 -13 -2 -8 5 4
6 -4 5 -17 -2 -13 -7 -26 -14 -29 -15 -23 -5 -39 -18 -33 -27 3 -6 1 -7 -6 -3
-7 5 -22 -3 -37 -19 -13 -14 -24 -23 -24 -19 0 5 -11 -7 -25 -26 -13 -18 -22
-36 -20 -41 3 -4 0 -9 -5 -11 -6 -2 -13 -35 -17 -74 -7 -87 11 -132 71 -173
35 -24 609 -357 1116 -648 189 -108 217 -117 355 -117 156 0 222 25 416 155
83 55 155 97 159 92 5 -4 31 -52 60 -105 l51 -97 -21 -40 c-11 -23 -22 -41
-25 -41 -2 0 -19 9 -37 20 -18 11 -43 20 -56 20 -29 0 -158 -74 -166 -96 -10
-25 -7 -206 4 -245 15 -54 73 -114 155 -159 l74 -41 11 -57 c6 -31 22 -93 35
-136 14 -43 22 -83 19 -88 -3 -5 -29 -26 -59 -48 -63 -46 -75 -85 -52 -162 11
-34 12 -49 3 -58 -8 -8 -7 -10 4 -5 11 4 22 -8 38 -41 13 -26 22 -47 20 -49
-4 -3 -708 -410 -958 -553 -209 -120 -266 -141 -351 -128 -48 7 -54 11 -574
311 -132 76 -323 187 -425 245 -203 117 -1686 974 -2005 1158 -110 63 -236
136 -280 162 -44 26 -150 87 -235 135 -85 49 -165 97 -178 108 l-22 20 0 -24
c0 -47 -73 -2 925 -577 149 -85 311 -179 360 -208 50 -29 248 -143 440 -254
193 -111 411 -237 485 -280 74 -43 263 -152 420 -242 157 -91 445 -257 640
-370 442 -255 410 -239 483 -240 85 -2 114 10 305 122 92 53 271 157 397 230
127 72 312 179 412 237 l183 105 34 -30 c54 -47 68 -48 143 -7 l66 37 31 -34
c17 -19 54 -60 82 -91 l52 -56 4 -123 c3 -110 7 -129 31 -175 29 -56 62 -85
144 -128 l53 -27 67 37 c96 52 97 54 103 148 l5 82 35 3 c35 3 35 2 88 -102
30 -57 68 -117 85 -134 52 -49 72 -49 159 3 43 26 91 59 108 75 27 25 30 34
30 89 0 54 -6 72 -61 177 l-61 117 18 38 c9 22 22 39 28 39 6 0 29 -10 52 -22
l41 -21 58 29 c32 16 71 41 86 56 28 25 29 29 29 126 0 161 -30 217 -154 289
-89 51 -96 58 -96 89 0 12 -14 70 -31 129 l-31 109 28 20 c86 62 94 74 94 136
0 50 -7 73 -50 158 -53 106 -103 162 -145 162 -13 0 -50 -16 -82 -35 l-58 -34
-50 57 c-27 31 -66 73 -86 93 -33 34 -36 41 -38 103 -1 40 2 66 8 66 6 0 48
-22 95 -50 47 -27 87 -50 89 -50 2 0 6 504 10 1121 3 616 7 1123 10 1125 8 9
237 -128 230 -139 -3 -6 -1 -7 6 -3 9 6 163 -76 291 -154 8 -6 43 -26 78 -45
34 -20 60 -40 57 -45 -3 -4 3 -6 13 -3 11 2 26 -3 35 -11 8 -9 19 -16 22 -16
4 0 50 -26 104 -58 53 -32 162 -96 243 -142 83 -47 145 -87 141 -93 -3 -6 -1
-7 5 -3 6 4 103 -46 214 -110 237 -136 240 -138 230 -149 -4 -5 -1 -5 5 -1 7
4 40 -9 73 -28 34 -20 65 -36 70 -36 4 0 10 -4 12 -8 2 -5 59 -40 128 -79 234
-131 395 -225 413 -241 9 -8 17 -12 17 -7 0 4 7 1 16 -6 20 -17 54 -37 75 -45
14 -5 17 -58 22 -456 4 -248 7 -1022 7 -1720 0 -697 3 -1268 7 -1268 3 0 34
16 68 36 l63 37 6 381 c4 210 6 986 4 1725 l-3 1345 -366 210 c-202 116 -500
288 -662 381 l-296 170 -3 1140 c-3 1051 -5 1145 -21 1200 -41 141 -135 292
-219 351 -23 17 -119 75 -213 129 -206 119 -1294 747 -3170 1830 -770 445
-1433 826 -1473 847 -69 36 -114 45 -152 31z m1650 -1177 c0 -3 -4 -8 -10 -11
-5 -3 -10 -1 -10 4 0 6 5 11 10 11 6 0 10 -2 10 -4z m60 -31 c0 -2 -10 -9 -22
-15 -22 -11 -22 -10 -4 4 21 17 26 19 26 11z m20 -15 c0 -5 -5 -10 -11 -10 -5
0 -7 5 -4 10 3 6 8 10 11 10 2 0 4 -4 4 -10z m0 -25 c0 -2 -13 -5 -30 -7 -22
-3 -27 -2 -19 8 8 10 49 9 49 -1z m96 -42 c-7 -7 -26 7 -26 19 0 6 6 6 15 -2
9 -7 13 -15 11 -17z m34 -14 c0 -5 -4 -9 -8 -9 -5 0 -9 7 -9 15 0 8 4 12 9 9
4 -3 8 -9 8 -15z m-312 -34 c-6 -14 -13 -23 -15 -21 -5 5 15 46 22 46 3 0 -1
-11 -7 -25z m332 5 c8 -5 11 -10 5 -10 -5 0 -17 5 -25 10 -8 5 -10 10 -5 10 6
0 17 -5 25 -10z m-323 -52 c-3 -8 -6 -5 -6 6 -1 11 2 17 5 13 3 -3 4 -12 1
-19z m388 12 c3 -6 -1 -7 -9 -4 -10 4 -16 1 -16 -7 0 -7 -3 -10 -6 -6 -7 7 4
27 16 27 5 0 12 -4 15 -10z m68 -13 c4 3 7 4 7 1 0 -3 -8 -12 -17 -19 -10 -8
-14 -9 -10 -2 10 16 -6 24 -23 12 -12 -7 -12 -11 -2 -17 8 -6 3 -9 -17 -9 -22
0 -26 3 -18 12 23 22 52 34 63 24 6 -5 14 -6 17 -2z m-517 -35 c-17 -16 -18
-16 -5 5 7 12 15 20 18 17 3 -2 -3 -12 -13 -22z m549 7 c-4 -5 -14 -8 -23 -8
-15 1 -15 2 1 6 9 2 14 9 11 15 -4 7 -2 8 5 4 6 -4 9 -12 6 -17z m40 -19 c-3
-5 -1 -10 6 -10 7 0 10 -3 6 -6 -9 -9 -28 6 -22 17 4 5 8 9 11 9 3 0 2 -4 -1
-10z m22 -44 c0 -8 -6 -12 -15 -9 -11 5 -11 7 0 14 7 5 13 9 14 9 0 0 1 -6 1
-14z m101 -21 c2 -2 -8 -2 -21 -1 -14 0 -23 5 -20 9 3 5 -1 8 -8 6 -8 -1 -21
-1 -29 0 -13 1 -13 3 -1 10 12 8 59 -7 79 -24z m61 -38 c-2 -1 -13 -9 -24 -17
-19 -14 -19 -14 -6 3 7 9 18 17 24 17 6 0 8 -1 6 -3z m51 -26 c28 -17 29 -19
14 -32 -15 -12 -17 -12 -12 1 3 9 -6 22 -21 32 -35 24 -20 23 19 -1z m-914
-19 c-17 -16 -18 -16 -5 5 7 12 15 20 18 17 3 -2 -3 -12 -13 -22z m-25 -49
c-12 -20 -14 -14 -5 12 4 9 9 14 11 11 3 -2 0 -13 -6 -23z m1022 9 c15 -16 15
-19 2 -19 -8 0 -13 3 -10 5 3 3 0 11 -6 19 -17 20 -5 16 14 -5z m-33 -2 c8 -5
11 -10 5 -10 -5 0 -17 5 -25 10 -8 5 -10 10 -5 10 6 0 17 -5 25 -10z m74 -22
c-5 -7 -2 -9 8 -5 9 3 24 -1 35 -9 17 -14 17 -15 -3 -5 -12 6 -24 8 -27 5 -9
-9 -28 6 -22 17 4 5 8 9 11 9 3 0 2 -5 -2 -12z m56 -48 c0 -4 -6 -10 -13 -13
-7 -3 -13 3 -13 13 0 10 6 16 13 13 7 -3 13 -9 13 -13z m30 5 c11 -13 10 -14
-4 -9 -9 3 -16 10 -16 15 0 13 6 11 20 -6z m60 -30 c22 -12 22 -14 5 -13 -11
0 -29 -3 -40 -7 l-20 -8 20 17 c17 15 18 17 2 12 -11 -3 -16 -2 -12 4 8 13 15
12 45 -5z m89 -54 c10 -7 7 -9 -12 -8 -15 1 -27 5 -27 10 0 10 22 9 39 -2z
m-1408 -44 c-10 -9 -11 -8 -5 6 3 10 9 15 12 12 3 -3 0 -11 -7 -18z m1444 1
c14 -6 25 -18 25 -27 0 -13 -1 -13 -12 1 -7 8 -22 20 -33 26 -27 15 -13 15 20
0z m-1490 -87 c-8 -17 -19 -33 -25 -36 -5 -3 -1 10 11 29 25 43 36 48 14 7z
m1427 -87 c-6 -12 -9 -7 -9 16 0 23 3 28 9 16 5 -9 5 -23 0 -32z m-28 -52 c-6
-4 -14 -14 -17 -22 -4 -10 -6 -8 -6 7 -1 12 5 23 12 26 16 6 24 -2 11 -11z
m524 -22 c-14 -22 -24 -19 -15 5 4 8 11 15 17 15 6 0 6 -7 -2 -20z m86 -39
c-3 -3 -15 6 -27 18 l-22 24 27 -19 c14 -10 24 -21 22 -23z m-652 -13 c-7 -7
-12 -8 -12 -2 0 14 12 26 19 19 2 -3 -1 -11 -7 -17z m618 18 c0 -3 -4 -8 -10
-11 -5 -3 -10 -1 -10 4 0 6 5 11 10 11 6 0 10 -2 10 -4z m-2107 -31 c-3 -9 -8
-14 -10 -11 -3 3 -2 9 2 15 9 16 15 13 8 -4z m2207 0 c0 -2 -9 -3 -19 -2 -11
0 -18 5 -15 9 4 6 34 0 34 -7z m-196 -11 c3 -8 2 -12 -4 -9 -6 3 -10 1 -10 -6
0 -7 -2 -10 -5 -7 -5 5 4 38 10 38 2 0 6 -7 9 -16z m91 6 c-3 -5 -12 -10 -18
-10 -7 0 -6 4 3 10 19 12 23 12 15 0z m-632 -15 c-3 -9 -8 -14 -10 -11 -3 3
-2 9 2 15 9 16 15 13 8 -4z m767 -6 c0 -6 6 -9 13 -6 7 3 21 -1 31 -9 18 -13
18 -14 2 -20 -14 -5 -15 -9 -4 -15 9 -6 9 -9 1 -9 -16 0 -26 17 -13 25 16 10
2 24 -19 18 -11 -3 -21 2 -24 11 -4 9 -2 16 3 16 6 0 10 -5 10 -11z m-269 -50
c-5 -13 -10 -19 -10 -12 -1 15 10 45 15 40 3 -2 0 -15 -5 -28z m-531 12 c0 -6
-4 -13 -10 -16 -5 -3 -10 1 -10 9 0 9 5 16 10 16 6 0 10 -4 10 -9z m928 -26
c3 -3 -4 -4 -16 -2 -12 2 -24 6 -28 10 -4 3 4 4 16 2 12 -2 25 -7 28 -10z m42
-31 c0 -2 -7 -4 -15 -4 -8 0 -15 4 -15 10 0 5 7 7 15 4 8 -4 15 -8 15 -10z
m27 -11 c-4 -3 -2 -12 4 -20 13 -14 9 -16 -15 -7 -13 5 -14 9 -5 20 6 8 14 14
17 14 3 0 2 -3 -1 -7z m-2551 -81 c-14 -15 -15 -13 -3 17 8 23 13 28 15 16 2
-10 -3 -25 -12 -33z m2628 26 c-5 -7 -2 -9 7 -6 8 3 33 -5 55 -19 25 -16 31
-23 17 -20 -13 3 -26 1 -29 -5 -4 -7 -9 -6 -14 2 -5 9 -13 9 -27 2 -18 -10
-19 -8 -17 21 3 38 2 37 10 37 3 0 2 -5 -2 -12z m-2663 -71 c-10 -9 -11 -8 -5
6 3 10 9 15 12 12 3 -3 0 -11 -7 -18z m2749 5 c0 -5 -7 -17 -16 -28 -15 -18
-15 -18 -5 2 6 12 7 24 4 28 -3 3 -1 6 5 6 7 0 12 -4 12 -8z m-1285 -38 c-8
-16 -15 -23 -15 -16 0 13 22 53 27 48 2 -2 -3 -16 -12 -32z m-1483 -6 c-7 -7
-12 -8 -12 -2 0 14 12 26 19 19 2 -3 -1 -11 -7 -17z m2015 -10 c-3 -8 -6 -5
-6 6 -1 11 2 17 5 13 3 -3 4 -12 1 -19z m660 -10 c-3 -8 -6 -5 -6 6 -1 11 2
17 5 13 3 -3 4 -12 1 -19z m-2693 -33 c-7 -16 -34 -28 -34 -15 0 6 5 10 10 10
6 0 10 7 10 16 0 8 4 13 10 9 5 -3 7 -12 4 -20z m2016 15 c0 -5 -2 -10 -4 -10
-3 0 -8 5 -11 10 -3 6 -1 10 4 10 6 0 11 -4 11 -10z m-540 -4 c0 -3 -4 -8 -10
-11 -5 -3 -10 -1 -10 4 0 6 5 11 10 11 6 0 10 -2 10 -4z m-26 -41 c-4 -8 -8
-15 -10 -15 -2 0 -4 7 -4 15 0 8 4 15 10 15 5 0 7 -7 4 -15z m-1497 -46 c0
-21 -3 -26 -9 -16 -4 9 -5 22 -2 31 9 23 11 20 11 -15z m2010 6 c-15 -16 -19
-13 -11 9 3 9 10 13 15 10 5 -3 3 -11 -4 -19z m-569 -55 c-7 -10 -14 -17 -17
-15 -4 4 18 35 25 35 2 0 -1 -9 -8 -20z m530 -16 c0 -17 -3 -22 -8 -13 -5 6
-6 18 -3 26 8 19 11 16 11 -13z m710 -29 c-3 -3 -9 2 -12 12 -6 14 -5 15 5 6
7 -7 10 -15 7 -18z m-733 -15 c-3 -5 -11 -10 -16 -10 -6 0 -7 5 -4 10 3 6 11
10 16 10 6 0 7 -4 4 -10z m-2031 -25 c3 -8 1 -15 -4 -15 -6 0 -10 7 -10 15 0
8 2 15 4 15 2 0 6 -7 10 -15z m1459 -30 c-3 -9 -8 -14 -10 -11 -3 3 -2 9 2 15
9 16 15 13 8 -4z m1257 3 c0 -7 -4 -19 -9 -27 -7 -10 -9 -7 -8 12 2 26 17 39
17 15z m-730 -18 c0 -5 -5 -10 -11 -10 -5 0 -7 5 -4 10 3 6 8 10 11 10 2 0 4
-4 4 -10z m-2034 -32 c-9 -12 -16 -19 -16 -15 0 11 24 47 28 42 2 -2 -3 -14
-12 -27z m2018 -4 c3 -8 2 -12 -4 -9 -6 3 -10 10 -10 16 0 14 7 11 14 -7z
m707 -21 c-12 -20 -14 -14 -5 12 4 9 9 14 11 11 3 -2 0 -13 -6 -23z m-760 -46
c-10 -9 -11 -8 -5 6 3 10 9 15 12 12 3 -3 0 -11 -7 -18z m733 -5 c-6 -4 -14
-14 -17 -22 -4 -10 -6 -8 -6 7 -1 12 5 23 12 26 16 6 24 -2 11 -11z m-1303
-69 c-12 -20 -14 -14 -5 12 4 9 9 14 11 11 3 -2 0 -13 -6 -23z m520 -16 l-24
-22 19 27 c10 14 21 24 23 22 3 -3 -6 -15 -18 -27z m730 -8 c-12 -19 -21 -30
-21 -26 0 14 31 69 36 64 3 -3 -4 -20 -15 -38z m-1273 -19 c-7 -10 -14 -17
-17 -15 -4 4 18 35 25 35 2 0 -1 -9 -8 -20z m1242 -27 c0 -5 -9 -19 -20 -33
l-20 -25 11 33 c10 28 29 45 29 25z m-2757 -28 c-3 -9 -8 -14 -10 -11 -3 3 -2
9 2 15 9 16 15 13 8 -4z m1987 -49 c0 -2 -7 -9 -15 -16 -13 -11 -14 -10 -9 4
5 14 24 23 24 12z m-2050 -76 c0 -5 -4 -10 -10 -10 -14 0 -12 -27 3 -33 6 -2
0 -4 -14 -3 -25 1 -25 2 -10 28 16 28 31 37 31 18z m1480 6 c0 -2 -8 -10 -17
-17 -16 -13 -17 -12 -4 4 13 16 21 21 21 13z m-47 -73 c-3 -7 -6 -13 -8 -13
-2 0 -5 6 -8 13 -3 8 1 14 8 14 7 0 11 -6 8 -14z m-1502 -36 c-10 -9 -11 -8
-5 6 3 10 9 15 12 12 3 -3 0 -11 -7 -18z m2019 14 c0 -5 -9 -19 -20 -32 l-20
-24 17 32 c19 34 23 39 23 24z m695 -72 c-9 -17 -19 -29 -21 -26 -7 7 18 57
28 57 5 0 1 -14 -7 -31z m-2741 -4 c-4 -8 -10 -15 -15 -15 -4 0 -6 7 -3 15 4
8 10 15 15 15 4 0 6 -7 3 -15z m1996 -14 c-5 -11 -15 -23 -21 -27 -6 -3 -3 5
6 20 20 30 30 35 15 7z m-2056 -81 c-9 -16 -19 -32 -24 -35 -8 -5 4 23 23 53
15 23 16 12 1 -18z m2734 -10 c-7 -10 -14 -17 -17 -15 -4 4 18 35 25 35 2 0
-1 -9 -8 -20z m-742 -18 c-17 -16 -18 -16 -5 5 7 12 15 20 18 17 3 -2 -3 -12
-13 -22z m-548 -27 c-3 -3 -9 2 -12 12 -6 14 -5 15 5 6 7 -7 10 -15 7 -18z
m-8 -19 c0 -3 -4 -8 -10 -11 -5 -3 -10 -1 -10 4 0 6 5 11 10 11 6 0 10 -2 10
-4z m-1499 -29 c-10 -9 -11 -8 -5 6 3 10 9 15 12 12 3 -3 0 -11 -7 -18z m2010
-4 c-12 -20 -14 -14 -5 12 4 9 9 14 11 11 3 -2 0 -13 -6 -23z m-543 -22 c-12
-19 -28 -19 -28 0 0 6 5 7 10 4 6 -3 10 -1 10 4 0 6 5 11 10 11 6 0 5 -8 -2
-19z m-1491 -23 c-3 -8 -6 -5 -6 6 -1 11 2 17 5 13 3 -3 4 -12 1 -19z m2724
-25 c-12 -20 -14 -14 -5 12 4 9 9 14 11 11 3 -2 0 -13 -6 -23z m-755 -41 c-17
-16 -18 -16 -5 5 7 12 15 20 18 17 3 -2 -3 -12 -13 -22z m44 -6 c0 -3 -4 -8
-10 -11 -5 -3 -10 -1 -10 4 0 6 5 11 10 11 6 0 10 -2 10 -4z m-610 -53 c-11
-17 -11 -17 -6 0 3 10 6 24 7 30 0 9 2 9 5 0 3 -7 0 -20 -6 -30z m548 -14 c-3
-8 -7 -3 -11 10 -4 17 -3 21 5 13 5 -5 8 -16 6 -23z m-2038 -14 c-6 -15 -13
-25 -16 -23 -2 3 1 17 7 32 7 14 14 24 16 22 2 -2 -1 -16 -7 -31z m2007 -7
c-3 -8 -6 -5 -6 6 -1 11 2 17 5 13 3 -3 4 -12 1 -19z m726 -3 c-3 -9 -8 -14
-10 -11 -3 3 -2 9 2 15 9 16 15 13 8 -4z m-743 -25 c0 -5 -5 -10 -11 -10 -5 0
-7 5 -4 10 3 6 8 10 11 10 2 0 4 -4 4 -10z m712 -29 c-9 -16 -18 -28 -21 -26
-4 5 27 55 34 55 2 0 -4 -13 -13 -29z m-756 -51 c0 -12 -4 -16 -9 -11 -5 5 -6
14 -3 20 10 15 12 14 12 -9z m-556 -22 c0 -7 -4 -19 -9 -27 -7 -10 -9 -7 -8
12 2 26 17 39 17 15z m521 -31 c-10 -9 -11 -8 -5 6 3 10 9 15 12 12 3 -3 0
-11 -7 -18z m-1996 3 c3 -5 1 -10 -4 -10 -6 0 -11 5 -11 10 0 6 2 10 4 10 3 0
8 -4 11 -10z m1435 -61 c-7 -11 -14 -18 -17 -15 -3 3 0 12 7 21 18 21 23 19
10 -6z m1263 6 c-3 -9 -8 -14 -10 -11 -3 3 -2 9 2 15 9 16 15 13 8 -4z m-2743
-9 c0 -3 -4 -8 -10 -11 -5 -3 -10 -1 -10 4 0 6 5 11 10 11 6 0 10 -2 10 -4z
m1990 -25 c-5 -11 -15 -23 -21 -27 -6 -3 -3 5 6 20 20 30 30 35 15 7z m704
-51 c-17 -33 -27 -40 -17 -12 6 17 23 42 28 42 2 0 -3 -13 -11 -30z m-1273
-17 c-12 -20 -14 -14 -5 12 4 9 9 14 11 11 3 -2 0 -13 -6 -23z m540 0 c-8 -15
-10 -15 -11 -2 0 17 10 32 18 25 2 -3 -1 -13 -7 -23z m-2038 -28 c-3 -9 -8
-14 -10 -11 -3 3 -2 9 2 15 9 16 15 13 8 -4z m1992 -35 c-9 -18 -19 -30 -21
-27 -3 2 3 18 13 35 23 40 29 33 8 -8z m-531 -2 c-9 -18 -23 -38 -30 -46 -12
-11 -14 -11 -14 2 0 9 4 16 10 16 5 0 16 14 25 30 9 17 18 30 21 30 2 0 -3
-14 -12 -32z m-1314 2 c8 -5 11 -12 8 -16 -4 -3 -14 1 -23 10 -18 17 -9 21 15
6z m-30 -15 c0 -7 -30 -13 -34 -7 -3 4 4 9 15 9 10 1 19 0 19 -2z m1820 -85
c-12 -12 -19 -27 -17 -34 3 -7 -1 -13 -8 -13 -10 0 -10 8 3 34 9 18 19 33 24
33 4 0 9 8 9 18 1 15 2 15 6 0 2 -9 -5 -26 -17 -38z m-1710 32 c-9 -3 -9 -6 0
-12 8 -5 7 -9 -5 -13 -11 -5 -14 -3 -9 5 5 8 2 9 -10 5 -11 -5 -15 -3 -10 5 5
7 2 9 -8 6 -8 -4 -20 -3 -27 1 -7 4 9 8 35 7 26 0 41 -2 34 -4z m45 -60 c-3
-3 -11 0 -18 7 -9 10 -8 11 6 5 10 -3 15 -9 12 -12z m45 -6 c0 -2 -7 -7 -16
-10 -8 -3 -12 -2 -9 4 6 10 25 14 25 6z m49 -17 c-8 -5 -11 -9 -7 -9 3 0 14
-3 24 -7 13 -5 15 -3 9 7 -5 9 -4 11 4 6 18 -12 2 -28 -21 -20 -15 4 -18 3
-13 -6 5 -9 4 -11 -4 -6 -6 4 -9 12 -5 17 3 6 0 10 -7 8 -8 -1 -21 -1 -29 0
-24 2 4 16 36 18 19 1 23 -1 13 -8z m2259 -14 c-3 -3 -9 2 -12 12 -6 14 -5 15
5 6 7 -7 10 -15 7 -18z m-1281 -32 c-21 -47 -47 -93 -53 -93 -3 0 3 15 13 33
11 18 23 45 27 60 3 15 11 27 16 27 5 0 4 -12 -3 -27z m534 0 c-12 -20 -14
-14 -5 12 4 9 9 14 11 11 3 -2 0 -13 -6 -23z m739 7 c0 -5 -4 -10 -10 -10 -5
0 -10 5 -10 10 0 6 5 10 10 10 6 0 10 -4 10 -10z m-30 -51 c-7 -11 -14 -18
-17 -15 -3 3 0 12 7 21 18 21 23 19 10 -6z m-2047 -3 c8 3 18 0 23 -7 4 -8 3
-10 -4 -5 -6 4 -21 2 -32 -4 -16 -9 -25 -8 -36 0 -19 17 -7 32 16 20 10 -5 25
-7 33 -4z m1283 -48 c-18 -26 -22 -17 -5 14 6 11 13 17 16 15 3 -3 -2 -16 -11
-29z m-1261 13 c3 -5 0 -13 -6 -17 -8 -5 -9 -3 -4 6 6 10 4 12 -9 7 -10 -4
-15 -3 -11 3 8 13 22 13 30 1z m1976 -44 c-10 -9 -11 -8 -5 6 3 10 9 15 12 12
3 -3 0 -11 -7 -18z m-1883 -12 c-3 -3 -13 -2 -22 1 -14 5 -15 9 -4 15 13 8 36
-6 26 -16z m612 0 c0 -8 -4 -15 -10 -15 -5 0 -7 7 -4 15 4 8 8 15 10 15 2 0 4
-7 4 -15z m526 -19 c0 -14 -5 -21 -9 -17 -4 4 -5 15 -1 24 9 24 12 21 10 -7z
m706 -38 c-6 -6 -7 0 -4 19 5 21 7 23 10 9 2 -10 0 -22 -6 -28z m-1761 -6 c-7
-2 -18 1 -23 6 -8 8 -4 9 13 5 13 -4 18 -8 10 -11z m54 5 c23 -17 3 -33 -22
-18 -14 8 -15 10 -3 11 13 0 13 1 0 10 -8 5 -10 10 -4 10 5 0 18 -6 29 -13z
m90 2 c11 -16 1 -19 -13 -3 -7 8 -8 14 -3 14 5 0 13 -5 16 -11z m-50 -50 c11
-16 1 -19 -13 -3 -7 8 -8 14 -3 14 5 0 13 -5 16 -11z m55 -45 c0 -2 -9 0 -20
6 -11 6 -20 13 -20 16 0 2 9 0 20 -6 11 -6 20 -13 20 -16z m25 8 c-3 -3 -11 0
-18 7 -9 10 -8 11 6 5 10 -3 15 -9 12 -12z m51 -39 c0 -12 -4 -19 -8 -17 -5 3
-5 10 -2 16 5 8 1 9 -10 5 -11 -5 -15 -3 -10 5 5 8 2 9 -9 5 -10 -3 -17 -2
-17 3 0 5 13 8 28 7 21 -2 28 -7 28 -24z m201 5 c-3 -8 -6 -5 -6 6 -1 11 2 17
5 13 3 -3 4 -12 1 -19z m510 -50 c-3 -8 -6 -5 -6 6 -1 11 2 17 5 13 3 -3 4
-12 1 -19z m683 -18 c-6 -11 -13 -20 -16 -20 -2 0 0 9 6 20 6 11 13 20 16 20
2 0 0 -9 -6 -20z m-714 -22 c-9 -12 -16 -19 -16 -15 0 11 24 47 28 42 2 -2 -3
-14 -12 -27z m-552 7 c11 -8 18 -17 15 -19 -2 -3 -15 4 -29 14 -14 11 -20 20
-15 19 6 0 19 -6 29 -14z m502 -93 c-18 -16 -18 -16 -6 6 6 13 14 21 18 18 3
-4 -2 -14 -12 -24z m-16 -42 c0 -5 -4 -10 -10 -10 -5 0 -10 5 -10 10 0 6 5 10
10 10 6 0 10 -4 10 -10z m-16 -36 c3 -8 2 -12 -4 -9 -6 3 -10 10 -10 16 0 14
7 11 14 -7z m700 -36 c-19 -37 -43 -63 -50 -55 -3 3 3 13 14 23 11 11 25 29
31 42 6 12 14 22 17 22 2 0 -3 -14 -12 -32z m-739 -48 c3 -6 -1 -7 -9 -4 -18
7 -21 14 -7 14 6 0 13 -4 16 -10z m135 -14 c0 -2 -7 -7 -16 -10 -8 -3 -12 -2
-9 4 6 10 25 14 25 6z m-55 -15 c3 -5 0 -13 -6 -17 -8 -5 -9 -3 -4 6 6 10 4
12 -9 7 -10 -4 -15 -3 -11 3 8 13 22 13 30 1z m608 -16 c-3 -9 -8 -14 -10 -11
-3 3 -2 9 2 15 9 16 15 13 8 -4z m-543 -5 c8 -5 11 -12 8 -16 -4 -3 -14 1 -23
10 -18 17 -9 21 15 6z m-35 -10 c3 -6 -1 -7 -9 -4 -18 7 -21 14 -7 14 6 0 13
-4 16 -10z m546 -37 c-12 -20 -14 -14 -5 12 4 9 9 14 11 11 3 -2 0 -13 -6 -23z
m-452 -7 c8 -9 7 -13 -4 -13 -8 0 -11 5 -8 10 4 6 0 8 -10 4 -9 -3 -18 -3 -21
1 -8 13 32 11 43 -2z m52 -7 c-20 -8 -22 -11 -10 -27 13 -15 12 -16 -4 -3 -13
10 -15 17 -6 27 6 8 19 14 28 13 10 0 8 -4 -8 -10z m365 -35 c-4 -9 -9 -15
-11 -12 -3 3 -3 13 1 22 4 9 9 15 11 12 3 -3 3 -13 -1 -22z m-12 -39 c-4 -8
-11 -15 -16 -15 -6 0 -5 6 2 15 7 8 14 15 16 15 2 0 1 -7 -2 -15z m-279 -5 c3
-6 -1 -7 -9 -4 -18 7 -21 14 -7 14 6 0 13 -4 16 -10z m45 -5 c-14 -17 -1 -20
18 -5 7 5 6 3 -1 -5 -8 -9 -21 -13 -31 -9 -15 6 -15 7 1 20 24 18 28 17 13 -1z
m210 -24 c0 -5 -9 -19 -20 -32 l-20 -24 17 32 c19 34 23 39 23 24z m-95 -61
c3 -6 -1 -7 -9 -4 -18 7 -21 14 -7 14 6 0 13 -4 16 -10z m40 -28 c-3 -3 -11 0
-18 7 -9 10 -8 11 6 5 10 -3 15 -9 12 -12z m-395 -655 c0 -7 -49 -1 -56 6 -5
4 0 5 10 1 14 -5 17 -4 11 5 -6 10 -3 11 14 2 11 -7 21 -13 21 -14z m-75 1 c3
-3 -8 -5 -25 -3 -17 1 -33 5 -36 8 -3 3 8 4 25 3 17 -1 33 -5 36 -8z m-145
-38 c0 -5 -5 -10 -11 -10 -5 0 -7 5 -4 10 3 6 8 10 11 10 2 0 4 -4 4 -10z
m270 -10 c-9 -6 -9 -9 -1 -15 7 -4 18 -1 26 5 10 8 15 9 15 2 0 -10 -23 -21
-45 -22 -5 0 -10 11 -11 24 0 17 3 23 13 19 11 -4 12 -8 3 -13z m-365 -10 c3
-5 1 -10 -4 -10 -6 0 -11 5 -11 10 0 6 2 10 4 10 3 0 8 -4 11 -10z m75 -4 c0
-3 -4 -8 -10 -11 -5 -3 -10 -1 -10 4 0 6 5 11 10 11 6 0 10 -2 10 -4z m358
-21 c-3 -3 -9 2 -12 12 -6 14 -5 15 5 6 7 -7 10 -15 7 -18z m67 -33 c-3 -3
-11 0 -18 7 -9 10 -8 11 6 5 10 -3 15 -9 12 -12z m-30 -12 c3 -5 1 -10 -4 -10
-6 0 -11 5 -11 10 0 6 2 10 4 10 3 0 8 -4 11 -10z m49 -1 c-3 -6 0 -15 7 -20
9 -6 10 -9 2 -9 -15 0 -26 17 -18 30 3 6 8 10 11 10 3 0 2 -5 -2 -11z m-654
-36 c0 -1 -11 2 -25 9 -13 6 -22 15 -19 19 4 7 44 -19 44 -28z m730 1 c0 -2
-13 2 -30 11 -16 9 -30 18 -30 21 0 2 14 -2 30 -11 17 -9 30 -18 30 -21z
m-687 19 c-7 -2 -21 -2 -30 0 -10 3 -4 5 12 5 17 0 24 -2 18 -5z m753 -59 c18
-14 18 -14 -6 -3 -31 14 -36 19 -24 19 6 0 19 -7 30 -16z m-898 -14 c-7 -10
-14 -18 -15 -16 -6 6 9 36 18 36 5 0 4 -9 -3 -20z m1003 -47 c13 -16 12 -17
-3 -4 -10 7 -18 15 -18 17 0 8 8 3 21 -13z m-1191 -10 c0 -5 -11 -13 -23 -19
-18 -8 -24 -8 -24 2 0 7 3 11 7 9 3 -2 12 0 20 6 18 11 20 11 20 2z m1197 -19
c-3 -3 -12 -4 -19 -1 -8 3 -5 6 6 6 11 1 17 -2 13 -5z m93 -30 c0 -2 -9 0 -20
6 -11 6 -20 13 -20 16 0 2 9 0 20 -6 11 -6 20 -13 20 -16z m25 -24 c3 -5 1
-10 -4 -10 -6 0 -11 5 -11 10 0 6 2 10 4 10 3 0 8 -4 11 -10z m50 -19 c-5 -9
20 -21 53 -27 32 -6 19 -12 -21 -9 -56 2 -72 12 -56 31 13 15 34 20 24 5z
m-1505 -5 c0 -3 -4 -8 -10 -11 -5 -3 -10 -1 -10 4 0 6 5 11 10 11 6 0 10 -2
10 -4z m1620 -62 c0 -2 -7 -4 -15 -4 -8 0 -15 4 -15 10 0 5 7 7 15 4 8 -4 15
-8 15 -10z m27 -11 c-4 -3 -2 -12 4 -20 8 -9 8 -13 1 -13 -6 0 -14 5 -17 10
-6 10 2 30 12 30 4 0 3 -3 0 -7z m78 -52 c-3 -6 3 -9 12 -8 10 0 30 -7 46 -17
29 -20 35 -29 13 -20 -8 3 -17 0 -21 -6 -6 -9 -9 -9 -15 0 -5 9 -13 9 -27 2
-18 -10 -19 -8 -17 21 3 38 2 37 10 37 3 0 3 -4 -1 -9z m-1715 -16 c11 -13 10
-14 -6 -8 -17 6 -17 5 -5 -10 7 -9 17 -14 22 -11 5 3 9 3 9 0 0 -17 -21 -12
-41 11 -13 14 -18 23 -11 19 6 -4 12 -2 12 3 0 15 5 14 20 -4z m55 -65 c3 -5
13 -6 22 -3 11 4 14 3 9 -5 -4 -7 -5 -12 -2 -12 2 0 12 -3 22 -7 12 -4 15 -3
10 5 -5 9 0 9 19 2 15 -6 31 -7 37 -4 7 4 8 2 4 -4 -4 -8 -18 -9 -34 -6 l-27
7 25 -22 c19 -16 10 -14 -35 10 -67 36 -85 49 -68 49 7 0 14 -4 18 -10z m1821
-9 c-4 -5 -1 -11 6 -13 8 -3 6 -6 -4 -10 -11 -5 -15 -2 -13 10 5 23 4 22 11
22 3 0 3 -4 0 -9z m78 -52 c-8 -14 -21 -11 -21 5 0 8 6 12 14 9 7 -3 10 -9 7
-14z m-1739 -18 c3 -5 0 -13 -6 -17 -8 -5 -9 -3 -4 6 6 10 4 12 -9 7 -10 -4
-15 -3 -11 3 8 13 22 13 30 1z m80 -1 c-3 -5 -12 -10 -18 -10 -7 0 -6 4 3 10
19 12 23 12 15 0z m1785 -46 c0 -2 -20 6 -45 18 -25 12 -45 25 -45 29 0 4 20
-4 45 -18 25 -13 45 -27 45 -29z m-1825 28 c-3 -3 0 -11 6 -19 17 -20 5 -16
-14 5 -15 16 -15 19 -2 19 8 0 13 -3 10 -5z m1840 -42 c-3 -5 -12 -10 -18 -10
-7 0 -6 4 3 10 19 12 23 12 15 0z m-1765 -4 c0 -2 -7 -7 -16 -10 -8 -3 -12 -2
-9 4 6 10 25 14 25 6z m1821 -23 c13 -16 12 -17 -3 -4 -10 7 -18 15 -18 17 0
8 8 3 21 -13z m-1806 -3 c3 -6 -1 -7 -9 -4 -18 7 -21 14 -7 14 6 0 13 -4 16
-10z m75 -7 c0 -1 -8 -7 -18 -12 -14 -7 -19 -6 -19 4 0 7 9 13 19 12 10 -1 18
-2 18 -4z m1770 -11 c0 -4 -10 -9 -22 -9 -18 -2 -20 0 -8 7 18 12 30 13 30 2z
m-54 -17 c17 -16 14 -18 -10 -9 -9 3 -16 10 -16 15 0 13 9 11 26 -6z m79 -25
c-3 -5 -14 -10 -23 -10 -15 0 -15 2 -2 10 20 13 33 13 25 0z m-1655 -20 c11 6
20 8 20 6 0 -3 -14 -13 -31 -22 -21 -10 -29 -11 -23 -3 5 9 2 10 -10 6 -11 -5
-15 -3 -10 5 5 7 2 9 -8 6 -8 -4 -15 0 -15 7 0 11 6 11 29 -1 21 -11 33 -12
48 -4z m1677 -16 c-3 -3 -12 -4 -19 -1 -8 3 -5 6 6 6 11 1 17 -2 13 -5z m33
-9 c-7 -8 -17 -15 -23 -15 -6 0 -2 7 9 15 25 19 30 19 14 0z m23 -10 c-3 -9
-8 -14 -10 -11 -3 3 -2 9 2 15 9 16 15 13 8 -4z m-83 -25 c-8 -5 -19 -10 -25
-10 -5 0 -3 5 5 10 8 5 20 10 25 10 6 0 3 -5 -5 -10z m-1510 -10 c8 -5 11 -10
5 -10 -5 0 -17 5 -25 10 -8 5 -10 10 -5 10 6 0 17 -5 25 -10z m-58 -7 c-6 -3
-9 -9 -6 -15 4 -6 -2 -5 -15 1 -27 15 -27 16 7 17 15 1 21 -1 14 -3z m1858
-29 c48 -28 60 -39 54 -52 -4 -10 -9 -52 -12 -94 l-4 -78 -32 0 c-29 0 -34 6
-86 106 -46 88 -52 107 -40 114 8 5 24 16 35 24 11 8 21 16 22 16 1 0 29 -16
63 -36z m-1818 8 c-8 -2 -4 -11 10 -24 20 -17 18 -17 -10 2 -32 22 -36 45 -5
33 11 -4 13 -8 5 -11z m53 -12 c-3 -5 -12 -10 -18 -10 -7 0 -6 4 3 10 19 12
23 12 15 0z m9 -36 c3 -8 2 -12 -4 -9 -6 3 -10 10 -10 16 0 14 7 11 14 -7z
m71 -24 c-3 -5 -11 -10 -16 -10 -6 0 -7 5 -4 10 3 6 11 10 16 10 6 0 7 -4 4
-10z m35 -42 c0 -6 -6 -5 -15 2 -8 7 -15 14 -15 16 0 2 7 1 15 -2 8 -4 15 -11
15 -16z m130 -17 c0 -5 -7 -12 -16 -15 -14 -5 -15 -4 -4 9 14 17 20 19 20 6z
m973 -16 c-7 -21 -12 -19 -10 4 0 11 5 18 9 15 4 -3 5 -11 1 -19z m57 11 c-4
-4 -16 -4 -26 2 -16 9 -14 10 8 9 15 -1 23 -6 18 -11z m-1100 -6 c13 -8 13
-10 -2 -10 -9 0 -20 5 -23 10 -8 13 5 13 25 0z m66 -25 c-1 -8 -6 -18 -11 -22
-4 -5 -5 -2 0 6 6 11 4 13 -11 8 -18 -7 -18 -7 0 8 24 18 25 18 22 0z m1008 9
c15 -6 15 -8 -1 -20 -10 -7 -22 -13 -28 -13 -5 0 -2 4 9 10 15 9 16 13 5 20
-16 10 -8 12 15 3z m-97 -51 c-4 -3 -1 -13 6 -22 11 -14 10 -14 -5 -2 -16 12
-16 31 -1 31 4 0 3 -3 0 -7z m33 3 c0 -3 -4 -8 -10 -11 -5 -3 -10 -1 -10 4 0
6 5 11 10 11 6 0 10 -2 10 -4z m-836 -22 c-16 -13 -16 -15 -1 -10 9 3 25 9 35
12 9 3 7 -1 -6 -8 -12 -8 -20 -17 -16 -21 4 -4 13 -2 21 4 8 7 13 8 13 1 0
-18 -27 -21 -49 -5 -17 12 -20 18 -10 29 6 8 16 14 22 14 6 0 2 -7 -9 -16z
m726 12 c0 -3 -4 -8 -10 -11 -5 -3 -10 -1 -10 4 0 6 5 11 10 11 6 0 10 -2 10
-4z m20 -26 c0 -5 -5 -10 -11 -10 -5 0 -7 5 -4 10 3 6 8 10 11 10 2 0 4 -4 4
-10z m36 -15 c-11 -8 -27 -15 -35 -14 -9 0 -2 7 14 14 39 18 45 18 21 0z
m-710 -33 c-10 -2 -22 0 -28 6 -6 6 0 7 19 4 21 -5 23 -7 9 -10z m638 -13 c-3
-5 -10 -7 -15 -3 -5 3 -7 10 -3 15 3 5 10 7 15 3 5 -3 7 -10 3 -15z m-581 -4
c4 -8 2 -17 -4 -20 -5 -4 -8 -1 -7 7 2 7 -5 12 -14 12 -10 -1 -15 2 -12 7 8
14 31 11 37 -6z m72 -5 c-3 -5 -11 -10 -16 -10 -6 0 -7 5 -4 10 3 6 11 10 16
10 6 0 7 -4 4 -10z m485 -4 c0 -2 -15 -13 -34 -24 -19 -12 -33 -15 -30 -9 6
16 64 46 64 33z m-505 -27 c11 -17 2 -18 -19 -3 -17 12 -17 14 -4 14 9 0 20
-5 23 -11z m138 -36 c-7 -2 -19 -2 -25 0 -7 3 -2 5 12 5 14 0 19 -2 13 -5z
m30 -20 c-7 -2 -19 -2 -25 0 -7 3 -2 5 12 5 14 0 19 -2 13 -5z m1083 -708 c43
-75 84 -143 89 -151 9 -13 40 0 205 91 107 58 209 115 225 125 17 10 35 19 42
19 10 1 83 -111 99 -152 4 -10 -24 -29 -98 -67 -57 -29 -180 -95 -274 -146
-95 -52 -176 -94 -182 -94 -8 0 -210 328 -279 452 -3 6 75 58 88 58 3 0 41
-61 85 -135z"/>
<path d="M10501 8907 c-8 -11 -5 -14 19 -14 17 0 29 1 28 1 -2 1 -10 7 -19 14
-13 10 -19 10 -28 -1z"/>
<path d="M7367 6909 c7 -7 15 -10 18 -7 3 3 -2 9 -12 12 -14 6 -15 5 -6 -5z"/>
<path d="M9140 4960 c8 -5 20 -10 25 -10 6 0 3 5 -5 10 -8 5 -19 10 -25 10 -5
0 -3 -5 5 -10z"/>
<path d="M9381 4827 c-8 -11 -5 -14 19 -14 17 0 29 1 28 1 -2 1 -10 7 -19 14
-13 10 -19 10 -28 -1z"/>
<path d="M12413 9352 l-82 -47 -1 -817 0 -817 145 -83 145 -83 -2 -268 c-2
-147 -2 -267 0 -267 20 0 191 113 273 181 58 47 114 92 126 99 18 11 55 -7
354 -180 516 -297 658 -379 738 -426 l73 -44 89 51 89 51 0 807 c0 630 -3 811
-12 823 -13 17 -1811 1058 -1838 1065 -8 1 -52 -18 -97 -45z m657 -1111 l0
-38 -146 -13 c-115 -10 -144 -16 -140 -26 3 -8 68 -92 146 -189 111 -138 140
-181 140 -205 0 -16 -3 -30 -7 -29 -5 0 -86 99 -180 221 -134 170 -173 226
-173 249 0 23 4 29 23 30 17 0 295 32 330 38 4 0 7 -16 7 -38z m317 -5 c-3
-12 -42 -127 -87 -256 -45 -129 -91 -261 -102 -292 -20 -59 -31 -67 -59 -45
-15 11 -6 42 87 312 58 165 107 306 109 312 8 23 57 -7 52 -31z m247 -413
c131 -166 166 -218 166 -241 0 -35 2 -34 -180 -52 -58 -6 -122 -13 -142 -16
-38 -6 -38 -6 -38 30 0 42 -4 41 169 55 68 6 126 12 128 15 3 3 -63 89 -146
191 -133 164 -151 191 -151 223 0 45 -16 61 194 -205z"/>
<path d="M4981 9036 c-44 -24 -63 -95 -45 -163 9 -31 63 -47 164 -47 74 0 94
4 157 32 92 41 114 41 43 1 -30 -18 -57 -33 -58 -35 -2 -1 1 -18 7 -37 7 -20
14 -61 16 -92 6 -75 12 -81 42 -45 28 34 69 40 88 14 10 -15 15 -10 35 32 13
27 26 74 28 104 4 52 2 58 -27 86 -20 19 -31 39 -31 57 0 74 -112 119 -241 96
-53 -9 -75 -9 -94 -1 -33 15 -54 15 -84 -2z"/>
<path d="M4780 7331 c-41 -27 -121 -78 -177 -113 l-102 -65 52 -35 c87 -60
293 -178 311 -178 24 0 85 32 206 109 58 37 120 76 139 88 l33 20 -72 17
c-104 23 -190 69 -250 132 -27 29 -50 58 -50 63 0 18 -12 13 -90 -38z"/>
<path d="M5545 7108 c-71 -55 -332 -181 -453 -219 l-103 -32 61 -34 c51 -29
60 -38 60 -62 0 -25 -16 -37 -195 -141 -107 -62 -201 -123 -210 -136 -17 -26
-47 -148 -145 -583 -34 -150 -64 -279 -66 -286 -7 -17 73 -64 127 -76 22 -5
54 -6 72 -1 35 9 35 8 161 437 31 105 68 228 83 275 l26 85 90 75 c49 41 147
125 217 185 70 61 148 126 174 145 61 47 124 130 147 196 19 54 26 178 11 200
-4 7 -25 -3 -57 -28z"/>
<path d="M4081 6758 c-5 -18 -42 -138 -81 -267 l-71 -233 22 -24 c30 -32 97
-56 143 -52 l38 3 82 195 c46 107 91 212 101 232 10 21 17 39 14 41 -3 3 -177
104 -231 133 -3 3 -11 -10 -17 -28z"/>
<path d="M4683 6749 c-29 -18 -43 -39 -28 -39 10 0 75 45 75 53 0 12 -13 8
-47 -14z"/>
<path d="M4709 6698 c-60 -40 -61 -41 -54 -77 4 -20 8 -38 10 -40 7 -7 175 94
175 106 0 6 -16 20 -35 31 l-34 21 -62 -41z"/>
<path d="M3825 6060 c-16 -11 -82 -40 -146 -65 -112 -44 -200 -101 -198 -128
0 -7 16 -25 36 -41 56 -47 122 -47 253 -2 58 20 136 40 174 45 91 13 118 33
129 97 5 27 5 64 2 83 -5 28 -8 31 -18 17 -17 -21 -61 -36 -110 -36 -34 0 -44
4 -52 22 -13 29 -33 31 -70 8z"/>
<path d="M13782 5824 c2 -18 16 -33 46 -51 l42 -25 0 28 c0 23 -8 34 -40 52
-49 28 -52 28 -48 -4z"/>
<path d="M10986 5827 c3 -10 9 -15 12 -12 3 3 0 11 -7 18 -10 9 -11 8 -5 -6z"/>
<path d="M13730 5663 c0 -25 9 -34 63 -66 35 -20 67 -37 70 -37 4 0 7 11 7 24
0 17 -10 31 -35 45 -19 12 -51 30 -70 42 l-35 21 0 -29z"/>
<path d="M13782 5434 c2 -18 16 -33 46 -51 l42 -25 0 28 c0 23 -8 34 -40 52
-49 28 -52 28 -48 -4z"/>
<path d="M4397 5341 c-48 -53 -111 -120 -141 -149 -57 -55 -82 -112 -55 -121
8 -2 27 -18 42 -35 23 -24 36 -30 66 -29 78 3 115 29 246 170 l125 134 0 67 0
67 -23 -27 c-12 -15 -34 -32 -48 -37 -22 -8 -30 -6 -49 14 -12 13 -35 28 -50
33 -26 9 -32 5 -113 -87z"/>
<path d="M13780 5244 c0 -23 8 -34 40 -51 49 -29 52 -29 48 3 -2 18 -16 33
-45 51 l-43 25 0 -28z"/>
<path d="M13782 5045 c2 -18 16 -33 46 -51 l42 -25 0 29 c0 23 -8 33 -39 50
-49 28 -53 28 -49 -3z"/>
<path d="M12080 4996 c0 -3 9 -10 20 -16 11 -6 20 -8 20 -6 0 3 -9 10 -20 16
-11 6 -20 8 -20 6z"/>
<path d="M12130 4966 c0 -2 7 -7 16 -10 8 -3 12 -2 9 4 -6 10 -25 14 -25 6z"/>
<path d="M6270 4870 c-9 -6 -10 -10 -3 -10 6 0 15 5 18 10 8 12 4 12 -15 0z"/>
<path d="M13780 4854 c0 -23 8 -34 40 -51 49 -29 52 -29 48 3 -2 18 -16 33
-45 51 l-43 25 0 -28z"/>
<path d="M6140 4830 c8 -5 20 -10 25 -10 6 0 3 5 -5 10 -8 5 -19 10 -25 10 -5
0 -3 -5 5 -10z"/>
<path d="M13730 4686 c0 -17 10 -30 33 -44 17 -10 49 -29 70 -41 l37 -23 0 29
c0 25 -9 34 -63 66 -35 20 -67 37 -70 37 -4 0 -7 -11 -7 -24z"/>
<path d="M6408 4693 c7 -3 16 -2 19 1 4 3 -2 6 -13 5 -11 0 -14 -3 -6 -6z"/>
<path d="M5850 4686 c0 -3 9 -10 20 -16 11 -6 20 -8 20 -6 0 3 -9 10 -20 16
-11 6 -20 8 -20 6z"/>
<path d="M12640 4670 c-9 -6 -10 -10 -3 -10 6 0 15 5 18 10 8 12 4 12 -15 0z"/>
<path d="M5948 4633 c7 -3 16 -2 19 1 4 3 -2 6 -13 5 -11 0 -14 -3 -6 -6z"/>
<path d="M5540 4556 c0 -3 9 -10 20 -16 11 -6 20 -8 20 -6 0 3 -9 10 -20 16
-11 6 -20 8 -20 6z"/>
<path d="M6638 4553 c6 -2 18 -2 25 0 6 3 1 5 -13 5 -14 0 -19 -2 -12 -5z"/>
<path d="M6270 4525 c-14 -8 -20 -14 -14 -15 5 0 19 7 30 15 24 18 16 19 -16
0z"/>
<path d="M5610 4516 c0 -3 9 -10 20 -16 11 -6 20 -8 20 -6 0 3 -9 10 -20 16
-11 6 -20 8 -20 6z"/>
<path d="M6178 4503 c12 -2 32 -2 45 0 12 2 2 4 -23 4 -25 0 -35 -2 -22 -4z"/>
<path d="M5894 4484 c-18 -14 -18 -15 4 -4 12 6 22 13 22 15 0 8 -5 6 -26 -11z"/>
<path d="M13780 4463 c0 -28 11 -38 83 -71 5 -2 7 9 5 24 -2 22 -13 34 -45 52
l-43 23 0 -28z"/>
<path d="M5830 4450 c-9 -6 -10 -10 -3 -10 6 0 15 5 18 10 8 12 4 12 -15 0z"/>
<path d="M6994 4444 c-18 -14 -18 -15 4 -4 12 6 22 13 22 15 0 8 -5 6 -26 -11z"/>
<path d="M5778 4433 c6 -2 18 -2 25 0 6 3 1 5 -13 5 -14 0 -19 -2 -12 -5z"/>
<path d="M6433 4363 c9 -2 23 -2 30 0 6 3 -1 5 -18 5 -16 0 -22 -2 -12 -5z"/>
<path d="M6124 4344 c-18 -14 -18 -15 4 -4 12 6 22 13 22 15 0 8 -5 6 -26 -11z"/>
<path d="M5380 4336 c0 -2 7 -7 16 -10 8 -3 12 -2 9 4 -6 10 -25 14 -25 6z"/>
<path d="M5954 4316 c11 -9 24 -16 30 -16 12 0 7 5 -24 19 -24 11 -24 11 -6
-3z"/>
<path d="M6008 4303 c7 -3 16 -2 19 1 4 3 -2 6 -13 5 -11 0 -14 -3 -6 -6z"/>
<path d="M13782 4265 c2 -18 16 -33 46 -51 l42 -25 0 30 c0 26 -7 34 -40 51
-50 25 -52 25 -48 -5z"/>
<path d="M5235 4270 c-3 -6 1 -7 9 -4 18 7 21 14 7 14 -6 0 -13 -4 -16 -10z"/>
<path d="M5710 4270 c-9 -6 -10 -10 -3 -10 6 0 15 5 18 10 8 12 4 12 -15 0z"/>
<path d="M6560 4276 c0 -3 9 -10 20 -16 11 -6 20 -8 20 -6 0 3 -9 10 -20 16
-11 6 -20 8 -20 6z"/>
<path d="M6374 4214 c-18 -14 -18 -14 6 -3 31 14 36 19 24 19 -6 0 -19 -7 -30
-16z"/>
<path d="M6718 4223 c7 -3 16 -2 19 1 4 3 -2 6 -13 5 -11 0 -14 -3 -6 -6z"/>
<path d="M6310 4180 c-9 -6 -10 -10 -3 -10 6 0 15 5 18 10 8 12 4 12 -15 0z"/>
<path d="M7074 4144 c-18 -14 -18 -15 4 -4 12 6 22 13 22 15 0 8 -5 6 -26 -11z"/>
<path d="M7358 4133 c12 -2 32 -2 45 0 12 2 2 4 -23 4 -25 0 -35 -2 -22 -4z"/>
<path d="M6820 4126 c0 -3 9 -10 20 -16 11 -6 20 -8 20 -6 0 3 -9 10 -20 16
-11 6 -20 8 -20 6z"/>
<path d="M6965 4090 c-16 -7 -17 -9 -3 -9 9 -1 20 4 23 9 7 11 7 11 -20 0z"/>
<path d="M13780 4076 c0 -19 10 -32 40 -51 22 -14 42 -25 45 -25 3 0 5 13 5
28 0 27 -9 35 -82 70 -5 2 -8 -8 -8 -22z"/>
<path d="M6903 4083 c9 -2 23 -2 30 0 6 3 -1 5 -18 5 -16 0 -22 -2 -12 -5z"/>
<path d="M6614 4064 c-18 -14 -18 -15 4 -4 12 6 22 13 22 15 0 8 -5 6 -26 -11z"/>
<path d="M7714 4024 c-18 -14 -18 -15 4 -4 12 6 22 13 22 15 0 8 -5 6 -26 -11z"/>
<path d="M7603 3993 c15 -2 37 -2 50 0 12 2 0 4 -28 4 -27 0 -38 -2 -22 -4z"/>
<path d="M11917 3993 c-23 -22 18 -107 56 -119 12 -3 29 -12 37 -19 37 -31
108 -63 118 -53 7 7 10 4 9 -8 -2 -15 4 -19 28 -17 19 2 25 -1 17 -6 -10 -6
-5 -14 21 -30 41 -25 60 -26 82 -5 9 9 19 13 23 9 4 -4 2 -10 -4 -12 -19 -7
-51 -35 -34 -30 8 2 23 -6 33 -17 10 -12 15 -14 11 -6 -4 9 3 6 17 -6 40 -36
87 -56 96 -41 13 21 14 49 1 41 -7 -4 -8 -3 -4 4 15 24 -18 54 -137 123 -67
40 -143 84 -168 99 -36 22 -50 25 -65 17 -17 -10 -18 -9 -4 8 14 17 14 18 -10
5 -26 -15 -68 -25 -58 -14 3 3 12 6 20 8 39 5 40 19 3 42 -21 12 -45 20 -53
16 -10 -3 -13 -1 -8 6 8 13 -16 17 -27 5z m168 -82 c3 -5 2 -12 -3 -15 -5 -3
-9 1 -9 9 0 17 3 19 12 6z m-80 -31 c3 -5 11 -10 16 -10 6 0 7 5 4 10 -3 6 1
10 9 10 21 0 21 -16 0 -24 -9 -3 -25 1 -37 9 -12 8 -16 15 -10 15 7 0 15 -4
18 -10z m77 -33 c-7 -8 -8 -18 -4 -22 4 -5 1 -5 -6 0 -10 5 -11 10 -3 18 6 6
11 15 11 21 0 6 -5 5 -12 -2 -7 -7 -16 -12 -22 -12 -5 0 -1 6 10 14 23 17 43
4 26 -17z m97 7 c9 -9 -53 7 -63 17 -5 5 5 4 24 -1 18 -5 35 -12 39 -16z m-9
-58 c0 -2 -7 -7 -16 -10 -8 -3 -12 -2 -9 4 6 10 25 14 25 6z m44 -8 c5 -10 7
-10 12 -1 4 8 12 5 25 -8 12 -12 19 -23 16 -25 -2 -2 -10 2 -16 10 -7 8 -18
13 -25 10 -7 -3 -19 2 -26 11 -7 9 -8 15 -2 15 6 0 13 -6 16 -12z m71 -6 c-3
-3 -11 0 -18 7 -9 10 -8 11 6 5 10 -3 15 -9 12 -12z m65 -27 c0 -2 -6 -5 -13
-8 -8 -3 -14 1 -14 8 0 7 6 11 14 8 7 -3 13 -6 13 -8z m-105 -15 c-3 -5 -13
-6 -21 -3 -12 4 -13 8 -3 14 15 9 32 2 24 -11z m143 -29 c3 -8 -1 -12 -9 -9
-7 2 -15 10 -17 17 -3 8 1 12 9 9 7 -2 15 -10 17 -17z m29 -67 c-3 -3 -12 -4
-19 -1 -8 3 -5 6 6 6 11 1 17 -2 13 -5z"/>
<path d="M7265 3980 c-3 -6 1 -7 9 -4 18 7 21 14 7 14 -6 0 -13 -4 -16 -10z"/>
<path d="M6200 3955 c-25 -13 -41 -24 -37 -25 11 0 87 39 87 45 0 7 0 7 -50
-20z"/>
<path d="M6118 3923 c7 -3 16 -2 19 1 4 3 -2 6 -13 5 -11 0 -14 -3 -6 -6z"/>
<path d="M6834 3914 c-18 -14 -18 -15 4 -4 12 6 22 13 22 15 0 8 -5 6 -26 -11z"/>
<path d="M13780 3875 c0 -19 10 -29 40 -45 49 -25 50 -25 50 4 0 17 -11 30
-36 45 -45 27 -54 26 -54 -4z"/>
<path d="M7804 3866 c11 -9 29 -16 40 -15 17 1 16 2 -6 9 -14 4 -32 11 -40 15
-7 3 -4 -1 6 -9z"/>
<path d="M5700 3846 c0 -3 9 -10 20 -16 11 -6 20 -8 20 -6 0 3 -9 10 -20 16
-11 6 -20 8 -20 6z"/>
<path d="M7398 3803 c7 -3 16 -2 19 1 4 3 -2 6 -13 5 -11 0 -14 -3 -6 -6z"/>
<path d="M6358 3793 c7 -3 16 -2 19 1 4 3 -2 6 -13 5 -11 0 -14 -3 -6 -6z"/>
<path d="M5840 3766 c0 -3 9 -10 20 -16 11 -6 20 -8 20 -6 0 3 -9 10 -20 16
-11 6 -20 8 -20 6z"/>
<path d="M6917 3759 c7 -7 15 -10 18 -7 3 3 -2 9 -12 12 -14 6 -15 5 -6 -5z"/>
<path d="M7794 3724 c-18 -14 -18 -15 4 -4 12 6 22 13 22 15 0 8 -5 6 -26 -11z"/>
<path d="M13730 3713 c0 -24 9 -33 70 -66 l70 -38 0 28 c0 24 -9 33 -62 63
-35 19 -66 37 -70 38 -5 2 -8 -9 -8 -25z"/>
<path d="M8078 3713 c7 -3 16 -2 19 1 4 3 -2 6 -13 5 -11 0 -14 -3 -6 -6z"/>
<path d="M7720 3685 c-14 -8 -20 -14 -14 -15 5 0 19 7 30 15 24 18 16 19 -16
0z"/>
<path d="M13015 3668 c-12 -39 20 -100 64 -122 34 -17 57 -11 39 12 -11 13
-10 15 4 10 14 -6 15 -2 7 24 -11 39 -39 70 -56 63 -8 -2 -12 -1 -9 4 3 5 -1
12 -10 15 -24 9 -34 7 -39 -6z m35 -2 c0 -2 -7 -7 -16 -10 -8 -3 -12 -2 -9 4
6 10 25 14 25 6z m64 -52 c7 -19 2 -18 -19 6 -16 17 -16 20 -3 15 9 -4 19 -13
22 -21z m-54 6 c-18 -12 -30 -13 -30 -2 0 4 10 9 22 9 18 2 20 0 8 -7z"/>
<path d="M7658 3663 c6 -2 18 -2 25 0 6 3 1 5 -13 5 -14 0 -19 -2 -12 -5z"/>
<path d="M6578 3653 c7 -3 16 -2 19 1 4 3 -2 6 -13 5 -11 0 -14 -3 -6 -6z"/>
<path d="M7334 3644 c-18 -14 -18 -15 4 -4 12 6 22 13 22 15 0 8 -5 6 -26 -11z"/>
<path d="M7208 3603 c12 -2 30 -2 40 0 9 3 -1 5 -23 4 -22 0 -30 -2 -17 -4z"/>
<path d="M6994 3574 c-18 -14 -18 -15 4 -4 12 6 22 13 22 15 0 8 -5 6 -26 -11z"/>
<path d="M6714 3571 c7 -11 46 -35 46 -28 0 3 -12 12 -26 22 -15 9 -23 12 -20
6z"/>
<path d="M8343 3573 c9 -2 23 -2 30 0 6 3 -1 5 -18 5 -16 0 -22 -2 -12 -5z"/>
<path d="M7898 3523 c7 -3 16 -2 19 1 4 3 -2 6 -13 5 -11 0 -14 -3 -6 -6z"/>
<path d="M6858 3513 c7 -3 16 -2 19 1 4 3 -2 6 -13 5 -11 0 -14 -3 -6 -6z"/>
<path d="M7360 3506 c0 -3 9 -10 20 -16 11 -6 20 -8 20 -6 0 3 -9 10 -20 16
-11 6 -20 8 -20 6z"/>
<path d="M7554 3494 c-18 -14 -18 -15 4 -4 12 6 22 13 22 15 0 8 -5 6 -26 -11z"/>
<path d="M13780 3487 c0 -17 11 -30 39 -45 48 -27 51 -27 51 2 0 17 -11 30
-36 45 -45 27 -54 26 -54 -2z"/>
<path d="M6413 3463 c9 -2 23 -2 30 0 6 3 -1 5 -18 5 -16 0 -22 -2 -12 -5z"/>
<path d="M7468 3463 c7 -3 16 -2 19 1 4 3 -2 6 -13 5 -11 0 -14 -3 -6 -6z"/>
<path d="M11220 3459 c0 -5 5 -7 10 -4 6 3 10 8 10 11 0 2 -4 4 -10 4 -5 0
-10 -5 -10 -11z"/>
<path d="M11234 3447 c-18 -10 -19 -17 -12 -44 7 -26 25 -42 96 -86 127 -78
133 -81 126 -60 -5 14 -4 15 4 4 5 -7 14 -11 19 -8 4 3 19 0 32 -7 20 -11 21
-14 7 -19 -12 -5 -15 -3 -10 5 5 8 2 9 -10 5 -11 -5 -15 -3 -10 5 5 7 3 8 -5
3 -21 -12 5 -29 43 -27 20 2 38 -4 46 -13 8 -10 9 -15 1 -15 -6 0 -11 5 -11
10 0 6 -10 10 -22 10 -18 0 -14 -6 22 -27 25 -15 52 -28 60 -30 8 -1 16 -7 18
-13 2 -5 8 -8 12 -5 5 3 21 -6 36 -20 18 -17 34 -23 48 -20 15 5 17 4 7 -3
-11 -8 -10 -12 7 -21 26 -14 42 -14 22 0 -12 8 -10 9 9 4 17 -5 21 -4 16 5 -4
7 5 5 24 -4 30 -16 33 -20 35 -48 2 -27 29 -37 53 -21 13 9 26 13 30 9 3 -3 0
-6 -8 -6 -8 0 -4 -8 11 -20 14 -11 20 -20 14 -20 -6 0 -17 7 -24 15 -15 18
-30 20 -30 3 0 -6 3 -8 7 -5 3 4 17 -3 30 -15 20 -19 26 -20 33 -8 5 8 6 18 4
22 -8 13 10 8 31 -8 20 -16 20 -16 -1 -10 -35 10 -40 -22 -6 -36 15 -7 39 -20
55 -31 15 -10 27 -15 27 -11 0 4 10 -2 23 -13 34 -32 66 -45 90 -38 17 5 19 4
7 -4 -17 -12 -18 -11 43 -45 27 -14 53 -23 59 -20 6 4 8 3 5 -3 -5 -8 94 -73
113 -73 4 0 13 -7 20 -15 7 -9 19 -14 27 -11 8 3 11 1 8 -4 -4 -6 5 -7 23 -4
16 3 32 1 36 -4 4 -6 -2 -8 -14 -5 -30 8 -24 -2 20 -31 l39 -26 15 22 c11 16
12 24 5 29 -7 4 -9 12 -5 17 12 19 -67 79 -174 134 -14 7 -31 19 -39 26 -7 7
-20 11 -27 8 -8 -3 -13 0 -11 6 1 7 -2 12 -8 13 -5 0 -30 13 -54 29 -24 15
-57 33 -72 38 -16 5 -29 14 -29 19 0 5 -7 9 -15 9 -8 0 -15 5 -15 11 0 6 -7 8
-16 5 -8 -3 -12 -2 -9 4 3 6 2 10 -3 10 -5 0 -47 23 -93 51 -94 57 -128 73
-148 70 -7 -1 -11 2 -8 6 3 5 -3 15 -15 22 -11 7 -17 8 -14 2 4 -7 1 -8 -8 -5
-9 3 -14 10 -11 14 7 12 -83 62 -97 54 -7 -5 -8 -3 -3 6 6 10 4 12 -9 7 -9 -4
-15 -3 -12 2 3 5 -15 20 -42 34 -100 53 -117 62 -122 68 -3 3 -26 18 -51 32
l-46 27 -27 -21 c-15 -12 -30 -19 -33 -15 -3 3 2 9 12 12 16 6 15 8 -5 19 -19
10 -20 13 -6 18 12 5 15 3 10 -5 -5 -8 -2 -9 10 -5 11 5 15 3 10 -5 -5 -7 -3
-8 6 -3 20 12 -14 33 -48 28 -21 -2 -23 -2 -8 5 18 8 18 9 3 15 -9 3 -25 4
-34 1 -14 -5 -15 -4 -4 4 11 8 10 12 -6 20 -16 9 -20 8 -20 -6 0 -9 4 -22 8
-28 6 -7 3 -16 -6 -24 -13 -11 -19 -10 -33 5 -15 17 -15 17 0 6 12 -9 18 -9
23 -1 9 14 4 19 -21 23 -25 3 -34 19 -11 23 9 1 15 -2 11 -7 -3 -5 0 -9 6 -9
14 0 9 42 -5 46 -5 2 -19 -2 -31 -9z m191 -127 c3 -5 1 -10 -4 -10 -6 0 -11 5
-11 10 0 6 2 10 4 10 3 0 8 -4 11 -10z m75 -16 c0 -2 -7 -4 -15 -4 -8 0 -15 4
-15 10 0 5 7 7 15 4 8 -4 15 -8 15 -10z m-90 -14 c0 -5 -7 -7 -15 -4 -8 4 -15
8 -15 10 0 2 7 4 15 4 8 0 15 -4 15 -10z m220 -57 c0 -3 -7 -2 -16 1 -10 4
-14 1 -11 -6 2 -7 18 -13 35 -13 17 -1 33 -3 37 -6 3 -3 -9 -6 -26 -6 -18 0
-37 -7 -44 -16 -7 -9 -16 -17 -20 -17 -5 0 -1 8 8 18 19 21 13 34 -10 25 -12
-5 -12 -2 2 15 15 17 45 21 45 5z m15 -81 c-3 -3 -11 0 -18 7 -9 10 -8 11 6 5
10 -3 15 -9 12 -12z m143 -24 c-2 -4 6 -14 17 -23 19 -16 19 -16 -3 -5 -12 6
-26 8 -31 5 -8 -4 -8 6 -2 33 1 2 6 2 12 0 6 -2 9 -7 7 -10z m135 -65 c-7 -2
-19 -2 -25 0 -7 3 -2 5 12 5 14 0 19 -2 13 -5z m31 -21 c2 -4 -4 -8 -14 -8
-10 0 -16 4 -14 8 3 4 9 8 14 8 5 0 11 -4 14 -8z m83 -49 c10 -9 8 -11 -12 -9
-14 2 -31 9 -38 16 -10 12 -9 12 6 1 20 -15 23 -2 5 19 -10 11 -9 11 7 0 11
-8 26 -20 32 -27z m58 -31 c-3 -3 -11 0 -18 7 -9 10 -8 11 6 5 10 -3 15 -9 12
-12z m-90 -30 c-3 -3 -11 0 -18 7 -9 10 -8 11 6 5 10 -3 15 -9 12 -12z m125
-12 c0 -5 -5 -10 -11 -10 -5 0 -7 5 -4 10 3 6 8 10 11 10 2 0 4 -4 4 -10z m39
-4 c9 -11 9 -16 0 -22 -8 -4 -9 -3 -5 4 4 7 2 12 -3 12 -6 0 -11 5 -11 10 0
14 5 13 19 -4z m-59 -26 c0 -5 -2 -10 -4 -10 -3 0 -8 5 -11 10 -3 6 -1 10 4
10 6 0 11 -4 11 -10z m57 -35 c0 -8 -4 -12 -9 -9 -4 3 -8 9 -8 15 0 5 4 9 8 9
5 0 9 -7 9 -15z m68 -6 c11 -16 1 -19 -13 -3 -7 8 -8 14 -3 14 5 0 13 -5 16
-11z m2 -44 c0 -8 -4 -12 -9 -9 -5 3 -6 10 -3 15 9 13 12 11 12 -6z m118 5
c-3 -5 -12 -10 -18 -10 -7 0 -6 4 3 10 19 12 23 12 15 0z m0 -41 c-9 -14 8
-11 35 8 14 9 20 10 13 3 -9 -10 -9 -19 -1 -34 6 -12 7 -18 3 -14 -4 4 -17 2
-29 -4 -21 -11 -21 -11 -2 11 21 23 16 27 -15 11 -13 -7 -25 -8 -37 -1 -13 8
-14 10 -2 11 13 0 13 1 0 11 -12 8 -10 9 9 4 17 -5 22 -4 16 5 -5 9 -4 11 4 6
6 -4 9 -12 6 -17z m86 -16 c13 -17 13 -17 -6 -3 -11 8 -22 16 -24 17 -2 2 0 3
6 3 6 0 17 -8 24 -17z m34 -53 c3 -6 -1 -7 -9 -4 -18 7 -21 14 -7 14 6 0 13
-4 16 -10z"/>
<path d="M8558 3433 c7 -3 16 -2 19 1 4 3 -2 6 -13 5 -11 0 -14 -3 -6 -6z"/>
<path d="M8618 3433 c7 -3 16 -2 19 1 4 3 -2 6 -13 5 -11 0 -14 -3 -6 -6z"/>
<path d="M6980 3416 c0 -3 9 -10 20 -16 11 -6 20 -8 20 -6 0 3 -9 10 -20 16
-11 6 -20 8 -20 6z"/>
<path d="M7120 3380 c-23 -7 -23 -8 -3 -9 12 -1 25 4 28 9 3 6 5 10 3 9 -2 -1
-14 -5 -28 -9z"/>
<path d="M7650 3336 c0 -2 7 -7 16 -10 8 -3 12 -2 9 4 -6 10 -25 14 -25 6z"/>
<path d="M7708 3323 c7 -3 16 -2 19 1 4 3 -2 6 -13 5 -11 0 -14 -3 -6 -6z"/>
<path d="M6653 3313 c9 -2 23 -2 30 0 6 3 -1 5 -18 5 -16 0 -22 -2 -12 -5z"/>
<path d="M13782 3293 c2 -21 14 -34 46 -51 l42 -23 0 28 c0 22 -8 33 -40 51
-49 28 -52 28 -48 -5z"/>
<path d="M8798 3293 c6 -2 18 -2 25 0 6 3 1 5 -13 5 -14 0 -19 -2 -12 -5z"/>
<path d="M7434 3274 c-18 -14 -18 -15 4 -4 12 6 22 13 22 15 0 8 -5 6 -26 -11z"/>
<path d="M8340 3250 c8 -5 22 -9 30 -9 10 0 8 3 -5 9 -27 12 -43 12 -25 0z"/>
<path d="M9078 3153 c7 -3 16 -2 19 1 4 3 -2 6 -13 5 -11 0 -14 -3 -6 -6z"/>
<path d="M13780 3103 c0 -24 8 -34 39 -51 49 -28 53 -28 49 4 -2 18 -16 33
-45 51 l-43 25 0 -29z"/>
<path d="M8637 3078 c2 -5 22 -8 43 -8 21 0 41 3 43 8 3 4 -17 7 -43 7 -26 0
-46 -3 -43 -7z"/>
<path d="M7057 3059 c7 -7 15 -10 18 -7 3 3 -2 9 -12 12 -14 6 -15 5 -6 -5z"/>
<path d="M11787 3064 c-11 -11 3 -24 24 -24 13 0 18 -4 13 -12 -4 -7 -3 -8 4
-4 15 9 15 12 -4 30 -17 17 -27 20 -37 10z"/>
<path d="M7128 3043 c6 -2 18 -2 25 0 6 3 1 5 -13 5 -14 0 -19 -2 -12 -5z"/>
<path d="M7620 3046 c0 -3 9 -10 20 -16 11 -6 20 -8 20 -6 0 3 -9 10 -20 16
-11 6 -20 8 -20 6z"/>
<path d="M7700 2996 c0 -2 7 -7 16 -10 8 -3 12 -2 9 4 -6 10 -25 14 -25 6z"/>
<path d="M7950 2990 c-9 -6 -10 -10 -3 -10 6 0 15 5 18 10 8 12 4 12 -15 0z"/>
<path d="M8844 2956 c11 -9 24 -16 30 -16 12 0 7 5 -24 19 -24 11 -24 11 -6
-3z"/>
<path d="M8898 2933 c6 -2 18 -2 25 0 6 3 1 5 -13 5 -14 0 -19 -2 -12 -5z"/>
<path d="M8428 2923 c7 -3 16 -2 19 1 4 3 -2 6 -13 5 -11 0 -14 -3 -6 -6z"/>
<path d="M13782 2904 c2 -18 16 -33 46 -51 l42 -25 0 28 c0 23 -8 34 -40 52
-49 28 -52 28 -48 -4z"/>
<path d="M7317 2909 c7 -7 15 -10 18 -7 3 3 -2 9 -12 12 -14 6 -15 5 -6 -5z"/>
<path d="M9450 2916 c0 -3 9 -10 20 -16 11 -6 20 -8 20 -6 0 3 -9 10 -20 16
-11 6 -20 8 -20 6z"/>
<path d="M7380 2876 c0 -3 9 -10 20 -16 11 -6 20 -8 20 -6 0 3 -9 10 -20 16
-11 6 -20 8 -20 6z"/>
<path d="M9118 2803 c7 -3 16 -2 19 1 4 3 -2 6 -13 5 -11 0 -14 -3 -6 -6z"/>
<path d="M7548 2783 c6 -2 18 -2 25 0 6 3 1 5 -13 5 -14 0 -19 -2 -12 -5z"/>
<path d="M8638 2783 c7 -3 16 -2 19 1 4 3 -2 6 -13 5 -11 0 -14 -3 -6 -6z"/>
<path d="M13730 2743 c0 -25 9 -34 65 -66 35 -20 67 -37 70 -37 3 0 5 11 5 24
0 17 -10 31 -35 45 -19 12 -51 30 -70 42 l-35 21 0 -29z"/>
<path d="M9350 2670 c8 -5 22 -9 30 -9 10 0 8 3 -5 9 -27 12 -43 12 -25 0z"/>
<path d="M8430 2640 c-9 -6 -10 -10 -3 -10 6 0 15 5 18 10 8 12 4 12 -15 0z"/>
<path d="M7898 2613 c7 -3 16 -2 19 1 4 3 -2 6 -13 5 -11 0 -14 -3 -6 -6z"/>
<path d="M9160 2530 c-9 -6 -10 -10 -3 -10 6 0 15 5 18 10 8 12 4 12 -15 0z"/>
<path d="M13782 2515 c2 -18 16 -33 46 -51 l42 -25 0 29 c0 23 -8 33 -39 50
-49 28 -53 28 -49 -3z"/>
<path d="M9093 2513 c9 -2 25 -2 35 0 9 3 1 5 -18 5 -19 0 -27 -2 -17 -5z"/>
<path d="M8170 2490 c-9 -6 -10 -10 -3 -10 6 0 15 5 18 10 8 12 4 12 -15 0z"/>
<path d="M8603 2493 c9 -2 23 -2 30 0 6 3 -1 5 -18 5 -16 0 -22 -2 -12 -5z"/>
<path d="M13017 2423 c-15 -14 -7 -53 11 -53 14 0 14 -2 3 -9 -11 -7 -8 -15
19 -39 43 -40 67 -46 81 -20 12 23 2 39 -11 18 -8 -13 -10 -12 -10 2 0 9 5 18
11 20 15 5 0 38 -18 38 -8 0 -11 5 -8 10 4 6 -9 17 -29 25 -41 17 -40 17 -49
8z m29 -15 c4 -7 3 -8 -4 -4 -7 4 -12 2 -12 -5 0 -7 -3 -10 -6 -6 -6 5 3 27
11 27 2 0 7 -5 11 -12z m29 -8 c3 -5 1 -10 -4 -10 -6 0 -11 5 -11 10 0 6 2 10
4 10 3 0 8 -4 11 -10z m5 -75 c19 -22 8 -25 -12 -3 -10 10 -14 18 -9 18 5 0
14 -7 21 -15z"/>
<path d="M8434 2374 c-18 -14 -18 -15 4 -4 12 6 22 13 22 15 0 8 -5 6 -26 -11z"/>
<path d="M8823 2363 c15 -2 37 -2 50 0 12 2 0 4 -28 4 -27 0 -38 -2 -22 -4z"/>
<path d="M13780 2324 c0 -23 8 -34 40 -51 49 -29 52 -29 48 3 -2 18 -16 33
-45 51 l-43 25 0 -28z"/>
<path d="M13782 2125 c2 -18 16 -33 46 -51 l42 -25 0 29 c0 23 -8 33 -39 50
-49 28 -53 28 -49 -3z"/>
<path d="M13780 1936 c0 -19 10 -32 40 -51 22 -14 42 -25 45 -25 3 0 5 13 5
28 0 27 -9 35 -82 70 -5 2 -8 -8 -8 -22z"/>
</g>
</svg>
